<svg width="104" height="32" viewBox="0 0 104 32" fill="none" xmlns="http://www.w3.org/2000/svg">
<path fill-rule="evenodd" clip-rule="evenodd" d="M74.6953 10.0563H74.7641H74.7814V12.6909H74.7125C74.0065 12.6909 73.3349 12.5532 72.715 12.2949C72.0779 12.0194 71.544 11.6578 71.0791 11.1928C70.6142 10.7279 70.2353 10.1769 69.977 9.55695C69.7188 8.93704 69.581 8.26547 69.581 7.55946V0H72.1984V2.4452H74.7641V5.0626H72.1984V7.55946C72.1984 7.90386 72.25 8.23103 72.3878 8.54099C72.5256 8.83372 72.6978 9.10924 72.9216 9.33309C73.1455 9.55695 73.4038 9.72915 73.7137 9.86691C74.0237 9.98744 74.3509 10.0563 74.6953 10.0563ZM41.134 9.72914C40.8585 9.50528 40.6863 9.21255 40.6346 8.85093H40.6174V2.44519H38V8.60985C38 9.16089 38.1033 9.6947 38.31 10.1941C38.5338 10.6934 38.8265 11.1412 39.1882 11.5028C39.567 11.8816 39.9975 12.1743 40.4969 12.381C40.9962 12.5876 41.5128 12.6909 42.0811 12.6909C42.5977 12.6909 43.1143 12.5876 43.5792 12.3982C44.0441 12.2088 44.4746 11.9505 44.8362 11.6061C45.1978 11.9333 45.6111 12.2088 46.0933 12.3982C46.5754 12.5876 47.0748 12.6909 47.6086 12.6909C48.1596 12.6909 48.6935 12.5876 49.1928 12.381C49.6922 12.1571 50.1399 11.8644 50.5015 11.5028C50.8804 11.1239 51.1731 10.6934 51.3797 10.1941C51.5864 9.6947 51.6897 9.17811 51.6897 8.60985V2.44519H49.0723V8.85093C49.0034 9.19533 48.8312 9.50528 48.5729 9.72914C48.3146 9.95299 47.9874 10.0735 47.6258 10.0735C47.2298 10.0735 46.8854 9.93577 46.6099 9.66026C46.3171 9.38474 46.1794 9.04035 46.1622 8.64429V2.44519H43.5448V8.59264C43.5448 9.00591 43.407 9.3503 43.1143 9.64304C42.8387 9.93577 42.4943 10.0735 42.0983 10.0735C41.7367 10.0735 41.4095 9.97021 41.134 9.72914ZM83.925 6.59516C83.7873 6.2852 83.6151 6.02691 83.3912 5.80305C83.1674 5.57919 82.8918 5.407 82.5991 5.26924C82.2892 5.13148 81.962 5.07982 81.6348 5.07982C81.2904 5.07982 80.9632 5.1487 80.6533 5.26924C80.3433 5.407 80.085 5.57919 79.8612 5.80305C79.6373 6.02691 79.4651 6.30242 79.3274 6.59516C79.1896 6.90511 79.1379 7.23229 79.1379 7.57668V12.6909H76.5205V0H79.1379V3.09955C79.4996 2.89291 79.8956 2.73794 80.3261 2.6174C80.7566 2.49686 81.1871 2.4452 81.6348 2.4452C82.3408 2.4452 83.0124 2.58296 83.6323 2.84126C84.2522 3.09955 84.8032 3.47839 85.2682 3.94332C85.7331 4.40825 86.0947 4.94206 86.3702 5.57919C86.6285 6.1991 86.7663 6.87067 86.7663 7.57668V12.6909H84.1317V7.55946C84.1317 7.23229 84.0628 6.90511 83.925 6.59516ZM47.8497 24.1117C48.108 23.4918 48.2457 22.8203 48.2457 22.1143C48.2457 21.4083 48.108 20.7367 47.8669 20.134C47.5914 19.4969 47.2298 18.963 46.7648 18.4981C46.2999 18.0332 45.7489 17.6544 45.129 17.3961C44.5091 17.1378 43.8375 17 43.1315 17C42.4255 17 41.7539 17.1378 41.134 17.3961C40.4969 17.6716 39.963 18.0332 39.4981 18.4981C39.0332 18.963 38.6544 19.5141 38.3961 20.134C38.1378 20.7539 38 21.4255 38 22.1315V30H40.6174V26.6086C41.3751 27.0391 42.2188 27.2457 43.1143 27.2457C43.8203 27.2457 44.4918 27.108 45.1117 26.8497C45.7489 26.5742 46.2827 26.2126 46.7476 25.7476C47.2126 25.2827 47.5914 24.7317 47.8497 24.1117ZM45.4389 21.1327C45.5595 21.4427 45.6283 21.7699 45.6283 22.1143C45.6283 22.4587 45.5595 22.7858 45.4389 23.0958C45.3012 23.3885 45.129 23.664 44.9051 23.8879C44.6813 24.1117 44.423 24.2839 44.113 24.4217C43.8203 24.5422 43.4931 24.6111 43.1487 24.6111C42.8043 24.6111 42.4771 24.5595 42.1672 24.4217C41.8744 24.2839 41.5989 24.1117 41.3751 23.8879C41.1512 23.664 40.979 23.4057 40.8413 23.0958C40.7207 22.7858 40.6518 22.4587 40.6518 22.1143C40.6518 21.7699 40.7035 21.4427 40.8413 21.1327C40.979 20.84 41.1512 20.5645 41.3751 20.3406C41.5989 20.1168 41.8572 19.9446 42.1672 19.8068C42.4771 19.6863 42.8043 19.6174 43.1487 19.6174C43.4759 19.6174 43.803 19.6691 44.113 19.8068C44.4057 19.9446 44.6813 20.1168 44.9051 20.3406C45.129 20.5645 45.3012 20.8228 45.4389 21.1327ZM51.8963 27.25H49.2789V15H51.8963V27.25ZM71.4869 21.9888V17H74.1V26.9944C74.1 27.6831 73.966 28.3382 73.7147 28.9429C73.4467 29.5644 73.095 30.0851 72.6427 30.5386C72.1904 30.9922 71.6544 31.3617 71.0514 31.6137C70.4484 31.8656 69.7951 32 69.1084 32C68.7901 32 68.4886 31.9664 68.1871 31.916V29.4636H69.1084C69.4266 29.4636 69.7449 29.3796 70.0464 29.2452C70.3312 29.1109 70.5992 28.9429 70.8169 28.7245C71.0347 28.5062 71.2022 28.2542 71.3362 27.9518C71.4534 27.6495 71.5204 27.3303 71.5204 26.9944V26.3729C70.7834 26.7928 69.9626 26.9944 69.0916 26.9944C68.4049 26.9944 67.7516 26.86 67.1486 26.6081C66.5288 26.3393 66.0096 25.9866 65.5573 25.533C65.105 25.0795 64.7365 24.542 64.4853 23.9373C64.234 23.3326 64.1 22.6775 64.1 21.9888V17H66.6461V21.9888C66.6461 22.3247 66.6963 22.6439 66.8303 22.9462C66.9643 23.2318 67.1318 23.5006 67.3496 23.7189C67.5673 23.9373 67.8186 24.1053 68.1201 24.2396C68.4216 24.3572 68.7399 24.4244 69.0749 24.4244C69.3931 24.4244 69.7114 24.374 70.0129 24.2396C70.2977 24.1053 70.5657 23.9373 70.7834 23.7189C71.0012 23.5006 71.1687 23.2486 71.3027 22.9462C71.4199 22.6439 71.4869 22.3247 71.4869 21.9888ZM93.0687 17H91.8289C91.1229 17 90.4513 17.1378 89.8314 17.3961C89.2115 17.6544 88.6605 18.0332 88.1955 18.4981C87.7306 18.963 87.369 19.4969 87.0935 20.134C86.8352 20.7539 86.6974 21.4255 86.6974 22.1315V27.2457H89.3148V22.1315C89.3148 21.7871 89.3837 21.4599 89.5042 21.15C89.642 20.84 89.8142 20.5817 90.0381 20.3578C90.2619 20.134 90.5374 19.9618 90.8302 19.824C91.1401 19.6863 91.4673 19.6346 91.8117 19.6346H93.0687V17ZM52.7401 22.125C52.7401 19.3037 55.0438 17 57.8651 17C60.703 17 62.9901 19.3037 62.9901 22.125V27.25H60.5695V26.4821C59.7849 26.9662 58.85 27.25 57.8651 27.25C55.0438 27.25 52.7401 24.9463 52.7401 22.125ZM55.1607 22.125C55.1607 23.6107 56.3793 24.8294 57.8651 24.8294C59.3675 24.8294 60.5695 23.6107 60.5695 22.125C60.5695 20.6392 59.3508 19.4206 57.8651 19.4206C56.3793 19.4206 55.1607 20.6392 55.1607 22.125ZM62.7511 8.35961C62.7845 8.1092 62.8179 7.8421 62.8179 7.575C62.8179 4.75375 60.5142 2.45 57.6929 2.45C54.8716 2.45 52.5679 4.75375 52.5679 7.575C52.5679 10.3963 54.8716 12.7 57.6929 12.7C59.9132 12.7 61.8163 11.281 62.5174 9.29446H59.7796C59.2788 9.89544 58.5276 10.2794 57.6929 10.2794C56.4743 10.2794 55.4392 9.4614 55.1054 8.35961H62.7511ZM55.3558 6.18941C55.8232 5.38811 56.6913 4.85391 57.6929 4.85391C58.6778 4.85391 59.5459 5.38811 60.0133 6.18941H55.3558ZM97.86 7.575C97.86 7.8421 97.8267 8.1092 97.7933 8.35961H90.1475C90.4814 9.4614 91.5164 10.2794 92.735 10.2794C93.5697 10.2794 94.321 9.89544 94.8218 9.29446H97.5596C96.8584 11.281 94.9553 12.7 92.735 12.7C89.9138 12.7 87.61 10.3963 87.61 7.575C87.61 4.75375 89.9138 2.45 92.735 2.45C95.5563 2.45 97.86 4.75375 97.86 7.575ZM92.735 4.85391C91.7334 4.85391 90.8653 5.38811 90.3979 6.18941H95.0555C94.5881 5.38811 93.72 4.85391 92.735 4.85391ZM85.464 22.9096C85.4973 22.6592 85.5307 22.3921 85.5307 22.125C85.5307 19.3037 83.227 17 80.4057 17C77.5845 17 75.2807 19.3037 75.2807 22.125C75.2807 24.9463 77.5845 27.25 80.4057 27.25C82.626 27.25 84.5291 25.831 85.2302 23.8445H82.4925C81.9916 24.4454 81.2404 24.8294 80.4057 24.8294C79.1871 24.8294 78.1521 24.0114 77.8182 22.9096H85.464ZM78.0686 20.7561C78.536 19.9548 79.4041 19.4206 80.4057 19.4206C81.3907 19.4206 82.2587 19.9548 82.7262 20.7561H78.0686ZM96.45 20.9167H99.9833V20.9H103.85C103.95 21.2833 104 21.6833 104 22.1C104 24.9167 101.7 27.2167 98.8833 27.2167C97.0667 27.2167 95.4833 26.2667 94.5667 24.85L96.95 24C97.4333 24.5 98.1167 24.8167 98.8667 24.8167C99.9333 24.8167 100.833 24.2 101.283 23.3167H97.8167H96.45H93.9C93.8 22.9333 93.75 22.5333 93.75 22.1167C93.75 19.3 96.05 17 98.8667 17C100.7 17 102.3 17.9667 103.2 19.4L100.817 20.25C100.317 19.7333 99.6333 19.4167 98.8667 19.4167C97.8 19.4167 96.9 20.0333 96.45 20.9167Z" fill="white"/>
<path fill-rule="evenodd" clip-rule="evenodd" d="M21.8447 13.2H29.6893C29.9513 13.2 30.0911 12.868 29.9339 12.6932L25.2516 8.00971C25.0594 7.81747 24.7275 7.9398 24.7275 8.21942V9.46019C24.7275 9.61747 24.6052 9.75728 24.4305 9.75728H21.0935C20.6392 9.75728 20.2723 9.39029 20.2723 8.93592V5.59806C20.2723 5.44078 20.3946 5.30097 20.5693 5.30097H21.8098C22.0718 5.30097 22.2116 4.96893 22.0194 4.7767L17.3372 0.0932039C17.145 -0.0990291 16.813 0.023301 16.813 0.302913V8.16699C16.813 10.9456 19.0668 13.2 21.8447 13.2ZM13.1965 0.302857C13.1965 0.0407211 12.8646 -0.0990847 12.6724 0.0931483L8.02507 4.77664C7.83289 4.96888 7.95519 5.30091 8.23473 5.30091H9.45771C9.61495 5.30091 9.75471 5.42324 9.75471 5.598V8.88344C9.75471 9.33781 9.38782 9.7048 8.93357 9.7048H5.59659C5.43935 9.7048 5.29958 9.58247 5.29958 9.40771V8.18441C5.29958 7.92227 4.96762 7.78247 4.77544 7.9747L0.0931794 12.6582C-0.0990031 12.8504 0.0232948 13.1825 0.302833 13.1825H8.16484C10.9428 13.1825 13.1965 10.9281 13.1965 8.14946V0.302857ZM29.6718 16.8175H21.8447C19.0668 16.8175 16.813 19.0719 16.813 21.8505V29.6971C16.813 29.9767 17.145 30.0991 17.3372 29.9068L22.0194 25.2233C22.2116 25.0311 22.0719 24.6991 21.8098 24.6991H20.5693C20.3946 24.6991 20.2723 24.5592 20.2723 24.402V21.0641C20.2723 20.6097 20.6392 20.2427 21.0935 20.2427H24.4305C24.6052 20.2427 24.7275 20.3825 24.7275 20.5398V21.7806C24.7275 22.0602 25.0594 22.1825 25.2516 21.9903L29.9339 17.3068C30.0911 17.1321 29.9513 16.8175 29.6718 16.8175ZM13.1965 29.6971C13.1965 29.9592 12.8646 30.0991 12.6724 29.9068L8.02507 25.2758C7.83289 25.0835 7.95519 24.7515 8.23473 24.7515H9.45771C9.61495 24.7515 9.75471 24.6291 9.75471 24.4544V21.1165C9.75471 20.6622 9.38782 20.2952 8.93357 20.2952H5.59659C5.43935 20.2952 5.29958 20.4175 5.29958 20.5923V21.8156C5.29958 22.0777 4.96762 22.2175 4.77544 22.0253L0.0931794 17.3418C-0.0990031 17.1495 0.0232948 16.8175 0.302833 16.8175H8.16484C10.9428 16.8175 13.1965 19.0719 13.1965 21.8505V29.6971Z" fill="#00B4CC"/>
</svg>
